<svg width="435" height="298" viewBox="0 0 435 298" fill="none" xmlns="http://www.w3.org/2000/svg">
<path d="M47.4693 0.301948C42.532 -0.627435 38.7072 4.56005 41.0547 9.00194L191.714 294.073C193.955 298.313 200.018 298.341 202.298 294.122L351.461 18.0468C352.771 15.6236 355.869 14.4793 358.531 15.1848C610.688 82.0059 172.128 145.661 10.0832 166.318C8.24338 166.552 6.64701 167.73 5.77643 169.368C-41.8925 259.038 226.664 256.606 39.1718 151.437C35.1422 149.177 34.5103 143.025 38.0225 140.023C51.4566 128.542 75.1033 101.862 60.3806 65.1716C54.3088 50.04 67.3021 41.2307 88.326 36.2977C95.7849 34.5476 97.815 9.77876 90.2859 8.36151L47.4693 0.301948Z" fill="url(#paint0_linear_15_277)"/>
<defs>
<linearGradient id="paint0_linear_15_277" x1="188.974" y1="-29.8636" x2="188.974" y2="118.409" gradientUnits="userSpaceOnUse">
<stop stop-color="#FFCACA" stop-opacity="0.2"/>
<stop offset="1" stop-color="#EFC1F6" stop-opacity="0.3"/>
</linearGradient>
</defs>
</svg>
