<svg width="415" height="275" viewBox="0 0 415 275" fill="none" xmlns="http://www.w3.org/2000/svg">
<path d="M19.6989 115.439C21.2984 118.553 25.1422 119.53 28.0623 117.599C64.0644 93.7921 273.638 -38.7159 340.521 56.5962C413.604 160.742 427.375 215.207 288.214 229.438C287.541 229.507 286.868 229.683 286.254 229.968C277.72 233.924 211.269 264.467 173.683 273.777C138.782 282.423 78.9888 242.748 63.7946 232.111C61.6289 230.594 60.809 227.841 61.6976 225.351L62.6644 222.642C63.5636 220.122 65.6333 218.478 68.3045 218.628C121.169 221.6 658.64 248.06 281.988 71.3407C-76.5426 -96.8767 1.77497 80.5421 19.6989 115.439Z" fill="url(#paint0_linear_25_400)"/>
<defs>
<linearGradient id="paint0_linear_25_400" x1="147.005" y1="112.386" x2="147.005" y2="248.672" gradientUnits="userSpaceOnUse">
<stop stop-color="#EFC1F6" stop-opacity="0.3"/>
<stop offset="1" stop-color="#FFCACA" stop-opacity="0.2"/>
</linearGradient>
</defs>
</svg>
