<svg width="764" height="696" viewBox="0 0 764 696" fill="none" xmlns="http://www.w3.org/2000/svg">
<path d="M304.567 54.2961C444.086 70.0693 422.287 210.178 422.287 210.178C443.035 423.162 290.154 139.624 258.578 437.326C227.001 735.027 -13.7264 107.382 105.084 165.817C223.894 224.252 165.047 38.5229 304.567 54.2961Z" fill="url(#paint0_linear_15_106)"/>
<path d="M279.039 451.934C253.912 313.792 394.355 294.265 394.355 294.265C592.31 212.985 364.899 441.13 659.06 385.523C953.221 329.917 421.649 741.4 443.343 610.787C465.038 480.173 304.166 590.075 279.039 451.934Z" fill="url(#paint1_linear_15_106)"/>
<path d="M195.119 318.054C199.442 177.712 340.863 187.993 340.863 187.993C551.441 149.915 281.34 325.448 580.625 332.599C879.911 339.75 274.029 630.946 322.563 507.759C371.097 384.573 190.796 458.395 195.119 318.054Z" fill="url(#paint2_linear_15_106)"/>
<defs>
<linearGradient id="paint0_linear_15_106" x1="433.243" y1="155.629" x2="103.676" y2="375.177" gradientUnits="userSpaceOnUse">
<stop stop-color="#D49FDC"/>
<stop offset="1" stop-color="#D9D9D9" stop-opacity="0"/>
</linearGradient>
<linearGradient id="paint1_linear_15_106" x1="338.964" y1="299.504" x2="644.217" y2="551.766" gradientUnits="userSpaceOnUse">
<stop stop-color="#D49FDC"/>
<stop offset="1" stop-color="#D9D9D9" stop-opacity="0"/>
</linearGradient>
<linearGradient id="paint2_linear_15_106" x1="285.602" y1="181.53" x2="531.339" y2="492.06" gradientUnits="userSpaceOnUse">
<stop stop-color="#D49FDC"/>
<stop offset="1" stop-color="#D9D9D9" stop-opacity="0"/>
</linearGradient>
</defs>
</svg>
