<?xml version="1.0" encoding="UTF-8"?>
<svg xmlns="http://www.w3.org/2000/svg" xmlns:xlink="http://www.w3.org/1999/xlink" width="16px" height="16px" viewBox="0 0 16 16" version="1.1">
<g id="surface1">
<path style=" stroke:none;fill-rule:evenodd;fill:rgb(0%,0%,0%);fill-opacity:1;" d="M 14.667969 8.667969 C 14.652344 5 11.667969 2 8 2 C 4.332031 2 1.347656 5 1.332031 8.667969 L 3 8.667969 C 3.550781 8.667969 4 9.113281 4 9.667969 L 4 14.332031 C 4 14.886719 3.550781 15.332031 3 15.332031 L 1 15.332031 C 0.449219 15.332031 0 14.886719 0 14.332031 L 0 8.667969 C 0.015625 4.265625 3.59375 0.667969 8 0.667969 C 12.40625 0.667969 15.984375 4.265625 16 8.667969 L 16 14.332031 C 16 14.886719 15.550781 15.332031 15 15.332031 L 13 15.332031 C 12.449219 15.332031 12 14.886719 12 14.332031 L 12 9.667969 C 12 9.113281 12.449219 8.667969 13 8.667969 Z M 14.667969 8.667969 "/>
</g>
</svg>
